<svg id="Capa_1" enable-background="new 0 0 430 430" height="512" viewBox="0 0 430 430" width="512" xmlns="http://www.w3.org/2000/svg"><g><path d="m145.523 112.565 16.477 63.435 53 75.896 19-122.896-19-129s-47.253 51.978-69.477 112.565z" fill="#3faf90"/><path d="m284.108 111.565c-22.374-60.158-69.108-111.565-69.108-111.565v251.896l53-67.896z" fill="#178479"/><path d="m214.994 237c.142-13.078-2.324-27.597-7.877-43.388-26.115-74.268-129.111-129.848-129.111-129.848s-29.328 69.429-27.416 135.236l164.405 188 13.005-87z" fill="#83e685"/><path d="m351.994 63.764s-102.995 55.58-129.111 129.848c-5.553 15.792-8.019 30.31-7.877 43.388v139l164.405-177c1.911-65.807-27.417-135.236-27.417-135.236z" fill="#3faf90"/><path d="m27.22 193.62h-5.357v52.503c-.195 103.45 87.742 186.688 193.137 183.804l10-24.927-10-27.576c-.017-101.505-84.079-183.788-187.78-183.804z" fill="#3faf90"/><path d="m402.78 193.62h5.357v52.503c.195 103.45-87.742 186.688-193.137 183.804v-52.503c.017-101.505 84.079-183.788 187.78-183.804z" fill="#178479"/></g></svg>